<svg width="25" height="24" viewBox="0 0 25 24" fill="none" xmlns="http://www.w3.org/2000/svg">
<rect x="0.699219" width="24" height="24" rx="12" fill="white"/>
<path d="M16.8473 6.96032C17.098 6.79118 17.4413 6.81553 17.6656 7.03552C17.9216 7.28687 17.9256 7.69827 17.6744 7.95446L13.7096 11.9955L17.7047 16.0082L17.7877 16.1107C17.9533 16.3632 17.9249 16.7056 17.7028 16.9271C17.4803 17.1486 17.1373 17.176 16.8854 17.0092L16.7828 16.9252L12.7994 12.9242L8.84728 16.9554L8.74572 17.0394C8.49507 17.2086 8.15168 17.1842 7.92736 16.9642C7.67129 16.7129 7.66736 16.3015 7.91857 16.0453L11.8824 12.0033L7.8883 7.99157L7.80529 7.88903C7.63962 7.63654 7.66808 7.29415 7.89025 7.07263C8.11273 6.85115 8.45575 6.82377 8.70763 6.9906L8.81017 7.07458L12.7926 11.0746L16.7457 7.04431L16.8473 6.96032Z" fill="black"/>
<path d="M16.8473 6.96032L16.7074 6.75309C16.7007 6.75763 16.6942 6.76249 16.688 6.76766L16.8473 6.96032ZM17.6656 7.03552L17.8408 6.85715L17.8407 6.85703L17.6656 7.03552ZM17.6744 7.95446L17.8529 8.12955L17.853 8.12948L17.6744 7.95446ZM13.7096 11.9955L13.5311 11.8204C13.4352 11.9181 13.4358 12.0748 13.5324 12.1719L13.7096 11.9955ZM17.7047 16.0082L17.899 15.8509C17.8936 15.8442 17.8879 15.8379 17.8819 15.8318L17.7047 16.0082ZM17.7877 16.1107L17.9967 15.9736C17.9922 15.9666 17.9873 15.9599 17.982 15.9534L17.7877 16.1107ZM17.7028 16.9271L17.8791 17.1043L17.8793 17.1042L17.7028 16.9271ZM16.8854 17.0092L16.727 17.2026C16.7335 17.2079 16.7403 17.2129 16.7473 17.2176L16.8854 17.0092ZM16.7828 16.9252L16.6057 17.1016C16.6116 17.1075 16.6179 17.1132 16.6244 17.1186L16.7828 16.9252ZM12.7994 12.9242L12.9766 12.7478C12.9294 12.7004 12.8653 12.6739 12.7985 12.6742C12.7316 12.6744 12.6677 12.7015 12.6209 12.7492L12.7994 12.9242ZM8.84728 16.9554L9.0066 17.1481C9.0133 17.1426 9.01971 17.1367 9.0258 17.1305L8.84728 16.9554ZM8.74572 17.0394L8.88557 17.2467C8.89229 17.2421 8.89879 17.2373 8.90503 17.2321L8.74572 17.0394ZM7.92736 16.9642L7.75223 17.1426L7.75234 17.1427L7.92736 16.9642ZM7.91857 16.0453L7.74008 15.8702L7.74005 15.8703L7.91857 16.0453ZM11.8824 12.0033L12.0609 12.1783C12.1568 12.0806 12.1562 11.9239 12.0596 11.8269L11.8824 12.0033ZM7.8883 7.99157L7.69399 8.14887C7.69937 8.15553 7.70509 8.1619 7.71113 8.16796L7.8883 7.99157ZM7.80529 7.88903L7.59627 8.02618C7.60083 8.03314 7.60574 8.03987 7.61098 8.04633L7.80529 7.88903ZM7.89025 7.07263L7.71387 6.89545L7.71373 6.89559L7.89025 7.07263ZM8.70763 6.9906L8.86604 6.79719C8.85951 6.79184 8.85272 6.78683 8.84568 6.78217L8.70763 6.9906ZM8.81017 7.07458L8.98734 6.89819C8.98138 6.89221 8.97512 6.88653 8.96858 6.88117L8.81017 7.07458ZM12.7926 11.0746L12.6154 11.251C12.6626 11.2983 12.7267 11.3248 12.7935 11.3246C12.8603 11.3243 12.9243 11.2973 12.9711 11.2496L12.7926 11.0746ZM16.7457 7.04431L16.5864 6.85165C16.5797 6.85718 16.5733 6.86305 16.5672 6.86925L16.7457 7.04431ZM16.8473 6.96032L16.9871 7.16756C17.1413 7.06351 17.3528 7.07886 17.4906 7.21401L17.6656 7.03552L17.8407 6.85703C17.5299 6.5522 17.0546 6.51885 16.7074 6.75309L16.8473 6.96032ZM17.6656 7.03552L17.4905 7.21389C17.648 7.3686 17.6504 7.62183 17.4959 7.77945L17.6744 7.95446L17.853 8.12948C18.2007 7.7747 18.1952 7.20515 17.8408 6.85715L17.6656 7.03552ZM17.6744 7.95446L17.496 7.77938L13.5311 11.8204L13.7096 11.9955L13.888 12.1706L17.8529 8.12955L17.6744 7.95446ZM13.7096 11.9955L13.5324 12.1719L17.5275 16.1846L17.7047 16.0082L17.8819 15.8318L13.8868 11.8191L13.7096 11.9955ZM17.7047 16.0082L17.5104 16.1655L17.5934 16.268L17.7877 16.1107L17.982 15.9534L17.899 15.8509L17.7047 16.0082ZM17.7877 16.1107L17.5787 16.2478C17.6806 16.4032 17.6627 16.614 17.5262 16.7501L17.7028 16.9271L17.8793 17.1042C18.1872 16.7972 18.2261 16.3232 17.9967 15.9736L17.7877 16.1107ZM17.7028 16.9271L17.5264 16.75C17.3896 16.8862 17.1782 16.9032 17.0234 16.8007L16.8854 17.0092L16.7473 17.2176C17.0963 17.4487 17.571 17.4111 17.8791 17.1043L17.7028 16.9271ZM16.8854 17.0092L17.0438 16.8157L16.9412 16.7318L16.7828 16.9252L16.6244 17.1186L16.727 17.2026L16.8854 17.0092ZM16.7828 16.9252L16.96 16.7488L12.9766 12.7478L12.7994 12.9242L12.6223 13.1006L16.6057 17.1016L16.7828 16.9252ZM12.7994 12.9242L12.6209 12.7492L8.66876 16.7804L8.84728 16.9554L9.0258 17.1305L12.9779 13.0992L12.7994 12.9242ZM8.84728 16.9554L8.68797 16.7628L8.5864 16.8468L8.74572 17.0394L8.90503 17.2321L9.0066 17.1481L8.84728 16.9554ZM8.74572 17.0394L8.60587 16.8322C8.45174 16.9362 8.24024 16.9209 8.10238 16.7857L7.92736 16.9642L7.75234 17.1427C8.06312 17.4474 8.53839 17.4809 8.88557 17.2467L8.74572 17.0394ZM7.92736 16.9642L8.10249 16.7858C7.94492 16.6312 7.94249 16.378 8.09709 16.2203L7.91857 16.0453L7.74005 15.8703C7.39224 16.225 7.39766 16.7946 7.75223 17.1426L7.92736 16.9642ZM7.91857 16.0453L8.09706 16.2203L12.0609 12.1783L11.8824 12.0033L11.7039 11.8282L7.74008 15.8702L7.91857 16.0453ZM11.8824 12.0033L12.0596 11.8269L8.06546 7.81519L7.8883 7.99157L7.71113 8.16796L11.7053 12.1797L11.8824 12.0033ZM7.8883 7.99157L8.08261 7.83427L7.9996 7.73173L7.80529 7.88903L7.61098 8.04633L7.69399 8.14887L7.8883 7.99157ZM7.80529 7.88903L8.01431 7.75189C7.91241 7.59657 7.93027 7.38576 8.06677 7.24966L7.89025 7.07263L7.71373 6.89559C7.40588 7.20254 7.36683 7.6765 7.59627 8.02618L7.80529 7.88903ZM7.89025 7.07263L8.06663 7.2498C8.20346 7.11358 8.41482 7.09652 8.56959 7.19903L8.70763 6.9906L8.84568 6.78217C8.49668 6.55102 8.022 6.58871 7.71387 6.89545L7.89025 7.07263ZM8.70763 6.9906L8.54922 7.184L8.65176 7.26799L8.81017 7.07458L8.96858 6.88117L8.86604 6.79719L8.70763 6.9906ZM8.81017 7.07458L8.63301 7.25097L12.6154 11.251L12.7926 11.0746L12.9698 10.8982L8.98734 6.89819L8.81017 7.07458ZM12.7926 11.0746L12.9711 11.2496L16.9242 7.21937L16.7457 7.04431L16.5672 6.86925L12.6141 10.8995L12.7926 11.0746ZM16.7457 7.04431L16.905 7.23697L17.0066 7.15298L16.8473 6.96032L16.688 6.76766L16.5864 6.85165L16.7457 7.04431Z" fill="black"/>
</svg>
