<svg width="19" height="18" viewBox="0 0 19 18" fill="none" xmlns="http://www.w3.org/2000/svg">
<g clip-path="url(#clip0_311_164)">
<path d="M16.9916 14.542V16.5375H3.00879V14.542" stroke="white" stroke-width="1.27" stroke-linecap="round" stroke-linejoin="round"/>
<path d="M9.16866 1.45505L6.18989 6.61728C5.83562 7.23183 6.27665 7.99098 6.98519 7.99098H12.9499C13.6585 7.99098 14.0995 7.2246 13.7452 6.61728L10.7593 1.45505C10.405 0.840503 9.52293 0.840503 9.16866 1.45505Z" fill="white"/>
<path d="M10.7304 6.55273H9.19765C8.86224 6.55273 8.59033 6.82464 8.59033 7.16006V13.1826C8.59033 13.5181 8.86224 13.79 9.19765 13.79H10.7304C11.0658 13.79 11.3377 13.5181 11.3377 13.1826V7.16006C11.3377 6.82464 11.0658 6.55273 10.7304 6.55273Z" fill="white"/>
</g>
<defs>
<clipPath id="clip0_311_164">
<rect width="14.9083" height="16" fill="white" transform="translate(2.5459 1)"/>
</clipPath>
</defs>
</svg>
