<svg width="24" height="24" viewBox="0 0 24 24" fill="none" xmlns="http://www.w3.org/2000/svg">
<path d="M10.8888 1.46026C11.5025 0.846578 12.4975 0.846579 13.1112 1.46027L22.5397 10.8888C23.1534 11.5025 23.1534 12.4975 22.5397 13.1112L13.1112 22.5397C12.4975 23.1534 11.5025 23.1534 10.8888 22.5397L1.46026 13.1112C0.846578 12.4975 0.846579 11.5025 1.46027 10.8888L10.8888 1.46026ZM11.9999 13.5005C12.5522 13.5005 12.9999 13.0528 12.9999 12.5005L13 8.00003C13 7.44773 12.5523 7 12 7C11.4477 7 11 7.44771 10.9999 8L10.9999 12.5005C10.9999 13.0528 11.4476 13.5005 11.9999 13.5005ZM13 16C13 15.4477 12.5523 15 12 15C11.4477 15 11 15.4477 11 16C11 16.5523 11.4477 17 12 17C12.5523 17 13 16.5523 13 16Z" fill="#FF9E48"/>
</svg>
